<svg width="50" height="50" viewBox="0 0 50 50" fill="none" xmlns="http://www.w3.org/2000/svg">
<path d="M25.3541 2.64965C24.9547 2.65729 24.5743 2.82133 24.2946 3.1065C24.0149 3.39167 23.8582 3.7752 23.8583 4.17465V33.1622C23.8583 33.5666 24.019 33.9545 24.3049 34.2405C24.5909 34.5265 24.9788 34.6872 25.3833 34.6872C25.7877 34.6872 26.1756 34.5265 26.4616 34.2405C26.7476 33.9545 26.9083 33.5666 26.9083 33.1622V4.17465C26.9083 3.97209 26.868 3.77155 26.7897 3.58474C26.7113 3.39793 26.5966 3.2286 26.4521 3.08663C26.3076 2.94466 26.1363 2.8329 25.9481 2.75787C25.76 2.68285 25.5567 2.64606 25.3541 2.64965ZM48.4291 11.333C48.23 11.3387 48.034 11.3833 47.852 11.4642L34.7645 17.3059C34.4968 17.4269 34.2696 17.6225 34.1102 17.8693C33.9509 18.1162 33.8661 18.4038 33.8661 18.6976C33.8661 18.9914 33.9509 19.279 34.1102 19.5258C34.2696 19.7726 34.4968 19.9683 34.7645 20.0892L47.852 25.9497C48.0486 26.0381 48.2615 26.0842 48.477 26.0851C48.8257 26.084 49.1635 25.9634 49.434 25.7435C49.7046 25.5236 49.8916 25.2176 49.964 24.8766C50.0364 24.5355 49.9896 24.1799 49.8317 23.8691C49.6737 23.5583 49.414 23.311 49.0958 23.1684L39.125 18.6997L49.0958 14.2476C49.4639 14.0818 49.7516 13.7772 49.896 13.4002C50.0404 13.0232 50.0298 12.6043 49.8666 12.2351C49.7429 11.9596 49.5403 11.7269 49.2845 11.5663C49.0287 11.4058 48.731 11.3246 48.4291 11.333ZM1.55412 21.8163C1.31906 21.8121 1.0862 21.8622 0.873723 21.9628C0.661248 22.0635 0.474916 22.2118 0.329284 22.3964C0.183652 22.581 0.0826634 22.7967 0.0342077 23.0268C-0.0142481 23.2568 -0.00885873 23.4949 0.0499547 23.7226C3.66662 37.633 16.2479 47.3497 30.6395 47.3497C31.044 47.3497 31.4319 47.189 31.7179 46.903C32.0039 46.617 32.1645 46.2291 32.1645 45.8247C32.1645 45.4202 32.0039 45.0323 31.7179 44.7463C31.4319 44.4603 31.044 44.2997 30.6395 44.2997C24.3203 44.3022 18.1788 42.2084 13.1771 38.3464C8.17542 34.4844 4.59612 29.0723 2.99995 22.958C2.91603 22.6364 2.72938 22.3511 2.46839 22.1454C2.2074 21.9397 1.88637 21.8228 1.55412 21.8163Z" fill="black"/>
</svg>
