<svg width="50" height="50" viewBox="0 0 50 50" fill="none" xmlns="http://www.w3.org/2000/svg">
<path d="M24.9998 4.16699C22.264 4.16699 19.5549 4.70586 17.0273 5.75284C14.4996 6.79981 12.203 8.33438 10.2684 10.2689C6.36144 14.1759 4.1665 19.475 4.1665 25.0003C4.1665 34.2087 10.1457 42.0212 18.4165 44.792C19.4582 44.9587 19.7915 44.3128 19.7915 43.7503V40.2295C14.0207 41.4795 12.7915 37.4378 12.7915 37.4378C11.8332 35.0212 10.479 34.3753 10.479 34.3753C8.58317 33.0837 10.6248 33.1253 10.6248 33.1253C12.7082 33.2712 13.8123 35.2712 13.8123 35.2712C15.6248 38.4378 18.6873 37.5003 19.8748 37.0003C20.0623 35.6462 20.604 34.7295 21.1873 34.2087C16.5623 33.6878 11.7082 31.8962 11.7082 23.9587C11.7082 21.6462 12.4998 19.792 13.854 18.3128C13.6457 17.792 12.9165 15.6253 14.0623 12.8128C14.0623 12.8128 15.8123 12.2503 19.7915 14.9378C21.4373 14.4795 23.229 14.2503 24.9998 14.2503C26.7707 14.2503 28.5623 14.4795 30.2082 14.9378C34.1873 12.2503 35.9373 12.8128 35.9373 12.8128C37.0832 15.6253 36.354 17.792 36.1457 18.3128C37.4998 19.792 38.2915 21.6462 38.2915 23.9587C38.2915 31.917 33.4165 33.667 28.7707 34.1878C29.5207 34.8337 30.2082 36.1045 30.2082 38.042V43.7503C30.2082 44.3128 30.5415 44.9795 31.604 44.792C39.8748 42.0003 45.8332 34.2087 45.8332 25.0003C45.8332 22.2645 45.2943 19.5554 44.2473 17.0278C43.2004 14.5001 41.6658 12.2035 39.7312 10.2689C37.7967 8.33438 35.5 6.79981 32.9724 5.75284C30.4448 4.70586 27.7357 4.16699 24.9998 4.16699Z" fill="black"/>
</svg>
