<svg width="50" height="50" viewBox="0 0 50 50" fill="none" xmlns="http://www.w3.org/2000/svg">
<path d="M16.2498 4.16699H33.7498C40.4165 4.16699 45.8332 9.58366 45.8332 16.2503V33.7503C45.8332 36.955 44.5601 40.0285 42.294 42.2945C40.028 44.5606 36.9545 45.8337 33.7498 45.8337H16.2498C9.58317 45.8337 4.1665 40.417 4.1665 33.7503V16.2503C4.1665 13.0456 5.43957 9.97218 7.70563 7.70612C9.97169 5.44005 13.0451 4.16699 16.2498 4.16699ZM15.8332 8.33366C13.844 8.33366 11.9364 9.12384 10.5299 10.5304C9.12335 11.9369 8.33317 13.8445 8.33317 15.8337V34.167C8.33317 38.3128 11.6873 41.667 15.8332 41.667H34.1665C36.1556 41.667 38.0633 40.8768 39.4698 39.4703C40.8763 38.0638 41.6665 36.1561 41.6665 34.167V15.8337C41.6665 11.6878 38.3123 8.33366 34.1665 8.33366H15.8332ZM35.9373 11.4587C36.628 11.4587 37.2904 11.733 37.7788 12.2214C38.2671 12.7098 38.5415 13.3722 38.5415 14.0628C38.5415 14.7535 38.2671 15.4159 37.7788 15.9042C37.2904 16.3926 36.628 16.667 35.9373 16.667C35.2467 16.667 34.5843 16.3926 34.0959 15.9042C33.6075 15.4159 33.3332 14.7535 33.3332 14.0628C33.3332 13.3722 33.6075 12.7098 34.0959 12.2214C34.5843 11.733 35.2467 11.4587 35.9373 11.4587ZM24.9998 14.5837C27.7625 14.5837 30.412 15.6811 32.3655 17.6346C34.319 19.5881 35.4165 22.2377 35.4165 25.0003C35.4165 27.763 34.319 30.4125 32.3655 32.366C30.412 34.3195 27.7625 35.417 24.9998 35.417C22.2372 35.417 19.5876 34.3195 17.6341 32.366C15.6806 30.4125 14.5832 27.763 14.5832 25.0003C14.5832 22.2377 15.6806 19.5881 17.6341 17.6346C19.5876 15.6811 22.2372 14.5837 24.9998 14.5837ZM24.9998 18.7503C23.3422 18.7503 21.7525 19.4088 20.5804 20.5809C19.4083 21.753 18.7498 23.3427 18.7498 25.0003C18.7498 26.6579 19.4083 28.2476 20.5804 29.4197C21.7525 30.5918 23.3422 31.2503 24.9998 31.2503C26.6574 31.2503 28.2472 30.5918 29.4193 29.4197C30.5914 28.2476 31.2498 26.6579 31.2498 25.0003C31.2498 23.3427 30.5914 21.753 29.4193 20.5809C28.2472 19.4088 26.6574 18.7503 24.9998 18.7503Z" fill="black"/>
</svg>
